<mxfile host="app.diagrams.net" agent="Mozilla/5.0 (Windows NT 10.0; Win64; x64) AppleWebKit/537.36 (KHTML, like Gecko) Chrome/132.0.0.0 Safari/537.36" version="26.0.14">
  <diagram name="Página-1" id="hoZtY1_vC-M5I5BUgDyv">
    <mxGraphModel dx="768" dy="385" grid="1" gridSize="10" guides="1" tooltips="1" connect="1" arrows="1" fold="1" page="1" pageScale="1" pageWidth="850" pageHeight="1100" math="0" shadow="0">
      <root>
        <mxCell id="0" />
        <mxCell id="1" parent="0" />
        <mxCell id="jW1s9VcCDxY_V-3mJhay-3" value="" style="edgeStyle=orthogonalEdgeStyle;rounded=0;orthogonalLoop=1;jettySize=auto;html=1;" edge="1" parent="1" source="jW1s9VcCDxY_V-3mJhay-1" target="jW1s9VcCDxY_V-3mJhay-2">
          <mxGeometry relative="1" as="geometry" />
        </mxCell>
        <mxCell id="jW1s9VcCDxY_V-3mJhay-1" value="Inicio" style="ellipse;whiteSpace=wrap;html=1;" vertex="1" parent="1">
          <mxGeometry x="365" y="20" width="120" height="80" as="geometry" />
        </mxCell>
        <mxCell id="jW1s9VcCDxY_V-3mJhay-5" value="" style="edgeStyle=orthogonalEdgeStyle;rounded=0;orthogonalLoop=1;jettySize=auto;html=1;" edge="1" parent="1" source="jW1s9VcCDxY_V-3mJhay-2" target="jW1s9VcCDxY_V-3mJhay-4">
          <mxGeometry relative="1" as="geometry" />
        </mxCell>
        <mxCell id="jW1s9VcCDxY_V-3mJhay-2" value="Ingrese num1" style="shape=parallelogram;perimeter=parallelogramPerimeter;whiteSpace=wrap;html=1;fixedSize=1;" vertex="1" parent="1">
          <mxGeometry x="365" y="130" width="120" height="60" as="geometry" />
        </mxCell>
        <mxCell id="jW1s9VcCDxY_V-3mJhay-7" value="" style="edgeStyle=orthogonalEdgeStyle;rounded=0;orthogonalLoop=1;jettySize=auto;html=1;" edge="1" parent="1" source="jW1s9VcCDxY_V-3mJhay-4" target="jW1s9VcCDxY_V-3mJhay-6">
          <mxGeometry relative="1" as="geometry" />
        </mxCell>
        <mxCell id="jW1s9VcCDxY_V-3mJhay-4" value="Ingrese num2" style="shape=parallelogram;perimeter=parallelogramPerimeter;whiteSpace=wrap;html=1;fixedSize=1;" vertex="1" parent="1">
          <mxGeometry x="365" y="220" width="120" height="60" as="geometry" />
        </mxCell>
        <mxCell id="jW1s9VcCDxY_V-3mJhay-12" value="" style="edgeStyle=orthogonalEdgeStyle;rounded=0;orthogonalLoop=1;jettySize=auto;html=1;" edge="1" parent="1" source="jW1s9VcCDxY_V-3mJhay-6" target="jW1s9VcCDxY_V-3mJhay-11">
          <mxGeometry relative="1" as="geometry" />
        </mxCell>
        <mxCell id="jW1s9VcCDxY_V-3mJhay-18" value="" style="edgeStyle=orthogonalEdgeStyle;rounded=0;orthogonalLoop=1;jettySize=auto;html=1;" edge="1" parent="1" source="jW1s9VcCDxY_V-3mJhay-6" target="jW1s9VcCDxY_V-3mJhay-17">
          <mxGeometry relative="1" as="geometry" />
        </mxCell>
        <mxCell id="jW1s9VcCDxY_V-3mJhay-6" value="número1 &amp;gt; número2?" style="rhombus;whiteSpace=wrap;html=1;" vertex="1" parent="1">
          <mxGeometry x="368" y="330" width="115" height="110" as="geometry" />
        </mxCell>
        <mxCell id="jW1s9VcCDxY_V-3mJhay-14" value="" style="edgeStyle=orthogonalEdgeStyle;rounded=0;orthogonalLoop=1;jettySize=auto;html=1;" edge="1" parent="1" source="jW1s9VcCDxY_V-3mJhay-11" target="jW1s9VcCDxY_V-3mJhay-13">
          <mxGeometry relative="1" as="geometry" />
        </mxCell>
        <mxCell id="jW1s9VcCDxY_V-3mJhay-16" value="" style="edgeStyle=orthogonalEdgeStyle;rounded=0;orthogonalLoop=1;jettySize=auto;html=1;" edge="1" parent="1" source="jW1s9VcCDxY_V-3mJhay-11" target="jW1s9VcCDxY_V-3mJhay-15">
          <mxGeometry relative="1" as="geometry" />
        </mxCell>
        <mxCell id="jW1s9VcCDxY_V-3mJhay-11" value="número2&amp;gt; número1?" style="rhombus;whiteSpace=wrap;html=1;" vertex="1" parent="1">
          <mxGeometry x="520" y="470" width="115" height="110" as="geometry" />
        </mxCell>
        <mxCell id="jW1s9VcCDxY_V-3mJhay-13" value="&quot;Numero 2 es mayor que numero 1&quot;" style="whiteSpace=wrap;html=1;" vertex="1" parent="1">
          <mxGeometry x="370" y="620" width="120" height="60" as="geometry" />
        </mxCell>
        <mxCell id="jW1s9VcCDxY_V-3mJhay-15" value="&quot;los números son iguales&quot;" style="whiteSpace=wrap;html=1;" vertex="1" parent="1">
          <mxGeometry x="670" y="620" width="120" height="60" as="geometry" />
        </mxCell>
        <mxCell id="jW1s9VcCDxY_V-3mJhay-17" value="&quot;El numero 1 es mayor que numero 2&quot;" style="whiteSpace=wrap;html=1;" vertex="1" parent="1">
          <mxGeometry x="220" y="620" width="120" height="60" as="geometry" />
        </mxCell>
        <mxCell id="jW1s9VcCDxY_V-3mJhay-19" value="Si" style="text;html=1;align=center;verticalAlign=middle;whiteSpace=wrap;rounded=0;" vertex="1" parent="1">
          <mxGeometry x="300" y="350" width="60" height="30" as="geometry" />
        </mxCell>
        <mxCell id="jW1s9VcCDxY_V-3mJhay-20" value="No" style="text;html=1;align=center;verticalAlign=middle;whiteSpace=wrap;rounded=0;" vertex="1" parent="1">
          <mxGeometry x="490" y="360" width="60" height="30" as="geometry" />
        </mxCell>
        <mxCell id="jW1s9VcCDxY_V-3mJhay-21" value="Si" style="text;html=1;align=center;verticalAlign=middle;whiteSpace=wrap;rounded=0;" vertex="1" parent="1">
          <mxGeometry x="460" y="490" width="60" height="30" as="geometry" />
        </mxCell>
        <mxCell id="jW1s9VcCDxY_V-3mJhay-22" value="No" style="text;html=1;align=center;verticalAlign=middle;whiteSpace=wrap;rounded=0;" vertex="1" parent="1">
          <mxGeometry x="650" y="490" width="60" height="30" as="geometry" />
        </mxCell>
        <mxCell id="jW1s9VcCDxY_V-3mJhay-23" value="Fin" style="ellipse;whiteSpace=wrap;html=1;" vertex="1" parent="1">
          <mxGeometry x="370" y="740" width="120" height="80" as="geometry" />
        </mxCell>
        <mxCell id="jW1s9VcCDxY_V-3mJhay-25" value="" style="endArrow=none;html=1;rounded=0;entryX=0.5;entryY=1;entryDx=0;entryDy=0;exitX=0;exitY=0.5;exitDx=0;exitDy=0;" edge="1" parent="1" source="jW1s9VcCDxY_V-3mJhay-23" target="jW1s9VcCDxY_V-3mJhay-17">
          <mxGeometry width="50" height="50" relative="1" as="geometry">
            <mxPoint x="280" y="780" as="sourcePoint" />
            <mxPoint x="330" y="730" as="targetPoint" />
            <Array as="points">
              <mxPoint x="280" y="780" />
            </Array>
          </mxGeometry>
        </mxCell>
        <mxCell id="jW1s9VcCDxY_V-3mJhay-26" value="" style="endArrow=none;html=1;rounded=0;entryX=0.5;entryY=1;entryDx=0;entryDy=0;" edge="1" parent="1" target="jW1s9VcCDxY_V-3mJhay-13">
          <mxGeometry width="50" height="50" relative="1" as="geometry">
            <mxPoint x="429.66" y="740" as="sourcePoint" />
            <mxPoint x="429.66" y="690" as="targetPoint" />
          </mxGeometry>
        </mxCell>
        <mxCell id="jW1s9VcCDxY_V-3mJhay-27" value="" style="endArrow=none;html=1;rounded=0;exitX=1;exitY=0.5;exitDx=0;exitDy=0;" edge="1" parent="1" source="jW1s9VcCDxY_V-3mJhay-23">
          <mxGeometry width="50" height="50" relative="1" as="geometry">
            <mxPoint x="680" y="730" as="sourcePoint" />
            <mxPoint x="730" y="680" as="targetPoint" />
            <Array as="points">
              <mxPoint x="730" y="780" />
            </Array>
          </mxGeometry>
        </mxCell>
      </root>
    </mxGraphModel>
  </diagram>
</mxfile>
